<?xml version="1.0" standalone="no"?>
<!DOCTYPE svg PUBLIC "-//W3C//DTD SVG 20010904//EN"
 "http://www.w3.org/TR/2001/REC-SVG-20010904/DTD/svg10.dtd">
<svg version="1.0" xmlns="http://www.w3.org/2000/svg"
 width="126.000000pt" height="173.000000pt" viewBox="0 0 126.000000 173.000000"
 preserveAspectRatio="xMidYMid meet">

<g transform="translate(0.000000,173.000000) scale(0.100000,-0.100000)"
fill="#000000" stroke="none">
<path d="M558 1292 l-3 -309 -155 95 c-85 52 -194 119 -241 148 -47 30 -91 54
-98 54 -8 0 -11 -108 -11 -405 0 -223 3 -405 8 -405 4 0 117 68 252 150 l245
150 3 -306 c2 -278 4 -305 19 -300 9 4 95 55 192 115 97 59 239 146 316 193
77 48 139 90 139 94 -1 5 -108 74 -239 154 -132 81 -240 150 -242 156 -1 5 32
30 75 55 337 202 413 252 400 264 -9 9 -577 360 -650 402 -4 2 -9 -135 -10
-305z m261 -54 c39 -24 71 -46 71 -49 0 -7 -143 -99 -154 -99 -3 0 -6 43 -6
95 0 53 4 95 9 95 6 0 42 -19 80 -42z m-496 -404 c-37 -24 -74 -44 -80 -44
-10 0 -13 23 -13 83 0 46 3 86 6 90 3 3 39 -15 80 -40 l75 -46 -68 -43z m492
-218 c39 -23 70 -47 69 -52 -1 -9 -133 -93 -146 -94 -5 0 -8 43 -8 95 0 52 3
95 8 95 4 0 39 -20 77 -44z" fill="#fff"/>
</g>
</svg>
